<svg width="2285" height="1298" viewBox="0 0 2285 1298" fill="none" xmlns="http://www.w3.org/2000/svg">
<path d="M932.959 1132C974.102 1132 1007.45 1165.6 1007.45 1207.06C1007.45 1248.51 974.102 1282.12 932.959 1282.12C891.817 1282.12 858.465 1248.51 858.465 1207.06C858.465 1165.6 891.817 1132 932.959 1132Z" fill="#10B981"/>
<path d="M932.959 1132C974.102 1132 1007.45 1165.6 1007.45 1207.06C1007.45 1248.51 974.102 1282.12 932.959 1282.12C891.817 1282.12 858.465 1248.51 858.465 1207.06C858.465 1165.6 891.817 1132 932.959 1132Z" stroke="black"/>
<path d="M314.657 402.03C281.312 322.754 248.889 293.829 163.805 272.55C412.963 -181.394 1017.8 -27.0027 1072 432.131C1030.41 433.383 932.136 434.636 878.5 431.631C826.091 116.146 409.496 110.147 314.657 402.03Z" fill="#10B981"/>
<path d="M39.0303 398.28C-16.844 381.391 -9.0296 314.926 39.0291 313.837C100.487 313.837 205.347 331.001 225.266 358.873C285.562 402.405 284.043 515.514 340.73 655.362C384.697 805.751 377.977 889.927 448.747 978.123C519.517 1066.32 850.883 1004.62 1018.63 1023.16C1060.89 1041.41 1064.77 1084.95 1018.63 1101.97H763.486L618.222 1297.13C514.773 1186.33 424.224 1040.49 374.252 980C324.28 919.512 138.445 570.993 130.283 546.524L130.029 545.764C121.917 521.461 112.305 492.663 124.696 407.662C108.734 401.336 94.9047 415.168 39.0303 398.28Z" fill="url(#paint0_linear_3_47)"/>
<path d="M476.681 919.951C467.369 891.804 372.288 569.201 341 482.131C577.52 482.131 1152.83 478.378 1164 482.131C1175.17 485.884 1209.65 505.082 1197.42 544.648L1106.16 846.767C1086.18 887.392 1073.4 903.449 1044.7 906.816C898.196 922.453 589.168 954.479 525.102 957.482C502.369 952.358 485.993 948.099 476.681 919.951Z" fill="url(#paint1_linear_3_47)"/>
<path d="M530.689 1132C571.832 1132 605.185 1165.6 605.185 1207.06C605.185 1248.51 571.832 1282.12 530.689 1282.12C489.547 1282.12 456.195 1248.51 456.195 1207.06C456.195 1165.6 489.547 1132 530.689 1132Z" fill="#10B981"/>
<path d="M530.689 1132C571.832 1132 605.185 1165.6 605.185 1207.06C605.185 1248.51 571.832 1282.12 530.689 1282.12C489.547 1282.12 456.195 1248.51 456.195 1207.06C456.195 1165.6 489.547 1132 530.689 1132Z" stroke="black"/>
<path d="M496 631.631L992.763 587.454C1021.91 584.862 1047 607.823 1047 637.082C1047 662.871 1027.32 684.398 1001.63 686.706L572.308 725.275C535.82 728.553 514.236 767.709 530.947 800.311C540.632 819.208 560.892 830.255 582.022 828.163L1047 782.131" stroke="white" stroke-width="30" stroke-linejoin="round"/>
<circle cx="1035.5" cy="780.631" r="27.5" fill="white"/>
<circle cx="1037.5" cy="795.631" r="2.5" fill="#10B981"/>
<circle cx="1037.5" cy="795.631" r="2.5" fill="#10B981"/>
<path d="M1036.5 762.131C1041.19 762.131 1045 765.757 1045 770.23C1045 774.704 1036.5 790.693 1036.5 789.007C1036.5 787.318 1028 774.704 1028 770.23C1028 765.757 1031.81 762.131 1036.5 762.131Z" fill="#10B981"/>
<path d="M1036.5 762.131C1041.19 762.131 1045 765.757 1045 770.23C1045 774.704 1036.5 790.693 1036.5 789.007C1036.5 787.318 1028 774.704 1028 770.23C1028 765.757 1031.81 762.131 1036.5 762.131Z" stroke="black"/>
<circle cx="1036.5" cy="770.5" r="2.5" fill="white"/>
<path d="M1480.42 500.48V536.1H1432.06V683H1387.6V536.1H1339.24V500.48H1480.42ZM1525.09 522.84C1517.29 522.84 1510.88 520.586 1505.85 516.08C1501 511.4 1498.57 505.68 1498.57 498.92C1498.57 491.986 1501 486.266 1505.85 481.76C1510.88 477.08 1517.29 474.74 1525.09 474.74C1532.72 474.74 1538.96 477.08 1543.81 481.76C1548.84 486.266 1551.35 491.986 1551.35 498.92C1551.35 505.68 1548.84 511.4 1543.81 516.08C1538.96 520.586 1532.72 522.84 1525.09 522.84ZM1547.19 537.92V683H1502.73V537.92H1547.19ZM1660.27 645.3V683H1637.65C1621.53 683 1608.97 679.1 1599.95 671.3C1590.94 663.326 1586.43 650.413 1586.43 632.56V574.84H1568.75V537.92H1586.43V502.56H1630.89V537.92H1660.01V574.84H1630.89V633.08C1630.89 637.413 1631.93 640.533 1634.01 642.44C1636.09 644.346 1639.56 645.3 1644.41 645.3H1660.27ZM1707.4 522.84C1699.6 522.84 1693.18 520.586 1688.16 516.08C1683.3 511.4 1680.88 505.68 1680.88 498.92C1680.88 491.986 1683.3 486.266 1688.16 481.76C1693.18 477.08 1699.6 474.74 1707.4 474.74C1715.02 474.74 1721.26 477.08 1726.12 481.76C1731.14 486.266 1733.66 491.986 1733.66 498.92C1733.66 505.68 1731.14 511.4 1726.12 516.08C1721.26 520.586 1715.02 522.84 1707.4 522.84ZM1729.5 537.92V683H1685.04V537.92H1729.5ZM1806.18 558.46C1810.51 551.7 1816.49 546.24 1824.12 542.08C1831.74 537.92 1840.67 535.84 1850.9 535.84C1862.86 535.84 1873.69 538.873 1883.4 544.94C1893.1 551.006 1900.73 559.673 1906.28 570.94C1912 582.206 1914.86 595.293 1914.86 610.2C1914.86 625.106 1912 638.28 1906.28 649.72C1900.73 660.986 1893.1 669.74 1883.4 675.98C1873.69 682.046 1862.86 685.08 1850.9 685.08C1840.84 685.08 1831.92 683 1824.12 678.84C1816.49 674.68 1810.51 669.306 1806.18 662.72V752.16H1761.72V537.92H1806.18V558.46ZM1869.62 610.2C1869.62 599.106 1866.5 590.44 1860.26 584.2C1854.19 577.786 1846.65 574.58 1837.64 574.58C1828.8 574.58 1821.26 577.786 1815.02 584.2C1808.95 590.613 1805.92 599.366 1805.92 610.46C1805.92 621.553 1808.95 630.306 1815.02 636.72C1821.26 643.133 1828.8 646.34 1837.64 646.34C1846.48 646.34 1854.02 643.133 1860.26 636.72C1866.5 630.133 1869.62 621.293 1869.62 610.2ZM2070.74 522.84C2062.94 522.84 2056.52 520.586 2051.5 516.08C2046.64 511.4 2044.22 505.68 2044.22 498.92C2044.22 491.986 2046.64 486.266 2051.5 481.76C2056.52 477.08 2062.94 474.74 2070.74 474.74C2078.36 474.74 2084.6 477.08 2089.46 481.76C2094.48 486.266 2097 491.986 2097 498.92C2097 505.68 2094.48 511.4 2089.46 516.08C2084.6 520.586 2078.36 522.84 2070.74 522.84ZM2092.84 537.92V683H2048.38V537.92H2092.84ZM2213.46 536.36C2230.44 536.36 2243.96 541.906 2254.02 553C2264.24 563.92 2269.36 579 2269.36 598.24V683H2225.16V604.22C2225.16 594.513 2222.64 586.973 2217.62 581.6C2212.59 576.226 2205.83 573.54 2197.34 573.54C2188.84 573.54 2182.08 576.226 2177.06 581.6C2172.03 586.973 2169.52 594.513 2169.52 604.22V683H2125.06V537.92H2169.52V557.16C2174.02 550.746 2180.09 545.72 2187.72 542.08C2195.34 538.266 2203.92 536.36 2213.46 536.36Z" fill="#10B981"/>
<path d="M1951 659.515V643.314L1977.98 655.846V681L1961.22 672.899V664.798L1951 659.515Z" fill="#064E3B"/>
<path d="M1951 667.264V661.981L1959.18 665.973V672.042L1951 667.264Z" fill="#064E3B"/>
<path d="M1979.74 681C1979.7 673.369 1979.64 657.655 1979.74 655.846L2007 641.905V667.616L1979.74 681Z" fill="#064E3B"/>
<path d="M1951 639.44L1978.8 653.176L2007 638.383L1978.8 625L1951 639.287M1951 643.314V659.515L1961.22 664.798V672.899L1977.98 681V655.846L1951 643.314ZM1951 661.981V667.264L1959.18 672.042V665.973L1951 661.981ZM1979.74 655.846C1979.64 657.655 1979.7 673.369 1979.74 681L2007 667.616V641.905L1979.74 655.846Z" stroke="#064E3B"/>
<path d="M1430.3 832.7C1430.3 838.5 1428.3 843.333 1424.3 847.2C1420.37 851 1414.33 852.9 1406.2 852.9H1392.8V882H1383.7V812.3H1406.2C1414.07 812.3 1420.03 814.2 1424.1 818C1428.23 821.8 1430.3 826.7 1430.3 832.7ZM1406.2 845.4C1411.27 845.4 1415 844.3 1417.4 842.1C1419.8 839.9 1421 836.766 1421 832.7C1421 824.1 1416.07 819.8 1406.2 819.8H1392.8V845.4H1406.2ZM1491.61 852.5C1491.61 854.233 1491.51 856.066 1491.31 858H1447.51C1447.84 863.4 1449.68 867.633 1453.01 870.7C1456.41 873.7 1460.51 875.2 1465.31 875.2C1469.24 875.2 1472.51 874.3 1475.11 872.5C1477.78 870.633 1479.64 868.166 1480.71 865.1H1490.51C1489.04 870.366 1486.11 874.666 1481.71 878C1477.31 881.266 1471.84 882.9 1465.31 882.9C1460.11 882.9 1455.44 881.733 1451.31 879.4C1447.24 877.066 1444.04 873.766 1441.71 869.5C1439.38 865.166 1438.21 860.166 1438.21 854.5C1438.21 848.833 1439.34 843.866 1441.61 839.6C1443.88 835.333 1447.04 832.066 1451.11 829.8C1455.24 827.466 1459.98 826.3 1465.31 826.3C1470.51 826.3 1475.11 827.433 1479.11 829.7C1483.11 831.966 1486.18 835.1 1488.31 839.1C1490.51 843.033 1491.61 847.5 1491.61 852.5ZM1482.21 850.6C1482.21 847.133 1481.44 844.166 1479.91 841.7C1478.38 839.166 1476.28 837.266 1473.61 836C1471.01 834.666 1468.11 834 1464.91 834C1460.31 834 1456.38 835.466 1453.11 838.4C1449.91 841.333 1448.08 845.4 1447.61 850.6H1482.21ZM1523.02 882.9C1518.82 882.9 1515.06 882.2 1511.72 880.8C1508.39 879.333 1505.76 877.333 1503.82 874.8C1501.89 872.2 1500.82 869.233 1500.62 865.9H1510.02C1510.29 868.633 1511.56 870.866 1513.82 872.6C1516.16 874.333 1519.19 875.2 1522.92 875.2C1526.39 875.2 1529.12 874.433 1531.12 872.9C1533.12 871.366 1534.12 869.433 1534.12 867.1C1534.12 864.7 1533.06 862.933 1530.92 861.8C1528.79 860.6 1525.49 859.433 1521.02 858.3C1516.96 857.233 1513.62 856.166 1511.02 855.1C1508.49 853.966 1506.29 852.333 1504.42 850.2C1502.62 848 1501.72 845.133 1501.72 841.6C1501.72 838.8 1502.56 836.233 1504.22 833.9C1505.89 831.566 1508.26 829.733 1511.32 828.4C1514.39 827 1517.89 826.3 1521.82 826.3C1527.89 826.3 1532.79 827.833 1536.52 830.9C1540.26 833.966 1542.26 838.166 1542.52 843.5H1533.42C1533.22 840.633 1532.06 838.333 1529.92 836.6C1527.86 834.866 1525.06 834 1521.52 834C1518.26 834 1515.66 834.7 1513.72 836.1C1511.79 837.5 1510.82 839.333 1510.82 841.6C1510.82 843.4 1511.39 844.9 1512.52 846.1C1513.72 847.233 1515.19 848.166 1516.92 848.9C1518.72 849.566 1521.19 850.333 1524.32 851.2C1528.26 852.266 1531.46 853.333 1533.92 854.4C1536.39 855.4 1538.49 856.933 1540.22 859C1542.02 861.066 1542.96 863.766 1543.02 867.1C1543.02 870.1 1542.19 872.8 1540.52 875.2C1538.86 877.6 1536.49 879.5 1533.42 880.9C1530.42 882.233 1526.96 882.9 1523.02 882.9ZM1552.47 854.4C1552.47 848.8 1553.6 843.9 1555.87 839.7C1558.13 835.433 1561.23 832.133 1565.17 829.8C1569.17 827.466 1573.6 826.3 1578.47 826.3C1583.27 826.3 1587.43 827.333 1590.97 829.4C1594.5 831.466 1597.13 834.066 1598.87 837.2V827.2H1608.07V882H1598.87V871.8C1597.07 875 1594.37 877.666 1590.77 879.8C1587.23 881.866 1583.1 882.9 1578.37 882.9C1573.5 882.9 1569.1 881.7 1565.17 879.3C1561.23 876.9 1558.13 873.533 1555.87 869.2C1553.6 864.866 1552.47 859.933 1552.47 854.4ZM1598.87 854.5C1598.87 850.366 1598.03 846.766 1596.37 843.7C1594.7 840.633 1592.43 838.3 1589.57 836.7C1586.77 835.033 1583.67 834.2 1580.27 834.2C1576.87 834.2 1573.77 835 1570.97 836.6C1568.17 838.2 1565.93 840.533 1564.27 843.6C1562.6 846.666 1561.77 850.266 1561.77 854.4C1561.77 858.6 1562.6 862.266 1564.27 865.4C1565.93 868.466 1568.17 870.833 1570.97 872.5C1573.77 874.1 1576.87 874.9 1580.27 874.9C1583.67 874.9 1586.77 874.1 1589.57 872.5C1592.43 870.833 1594.7 868.466 1596.37 865.4C1598.03 862.266 1598.87 858.633 1598.87 854.5ZM1650.15 826.2C1656.81 826.2 1662.21 828.233 1666.35 832.3C1670.48 836.3 1672.55 842.1 1672.55 849.7V882H1663.55V851C1663.55 845.533 1662.18 841.366 1659.45 838.5C1656.71 835.566 1652.98 834.1 1648.25 834.1C1643.45 834.1 1639.61 835.6 1636.75 838.6C1633.95 841.6 1632.55 845.966 1632.55 851.7V882H1623.45V827.2H1632.55V835C1634.35 832.2 1636.78 830.033 1639.85 828.5C1642.98 826.966 1646.41 826.2 1650.15 826.2ZM1696.81 869.4L1685.61 896.3H1679.51L1686.81 869.4H1696.81ZM1776.8 812.3V819.7H1757.8V882H1748.7V819.7H1729.6V812.3H1776.8ZM1792.7 818.3C1790.96 818.3 1789.5 817.7 1788.3 816.5C1787.1 815.3 1786.5 813.833 1786.5 812.1C1786.5 810.366 1787.1 808.9 1788.3 807.7C1789.5 806.5 1790.96 805.9 1792.7 805.9C1794.36 805.9 1795.76 806.5 1796.9 807.7C1798.1 808.9 1798.7 810.366 1798.7 812.1C1798.7 813.833 1798.1 815.3 1796.9 816.5C1795.76 817.7 1794.36 818.3 1792.7 818.3ZM1797.1 827.2V882H1788V827.2H1797.1ZM1823.71 834.7V867C1823.71 869.666 1824.27 871.566 1825.41 872.7C1826.54 873.766 1828.51 874.3 1831.31 874.3H1838.01V882H1829.81C1824.74 882 1820.94 880.833 1818.41 878.5C1815.87 876.166 1814.61 872.333 1814.61 867V834.7H1807.51V827.2H1814.61V813.4H1823.71V827.2H1838.01V834.7H1823.71ZM1853.73 818.3C1852 818.3 1850.53 817.7 1849.33 816.5C1848.13 815.3 1847.53 813.833 1847.53 812.1C1847.53 810.366 1848.13 808.9 1849.33 807.7C1850.53 806.5 1852 805.9 1853.73 805.9C1855.4 805.9 1856.8 806.5 1857.93 807.7C1859.13 808.9 1859.73 810.366 1859.73 812.1C1859.73 813.833 1859.13 815.3 1857.93 816.5C1856.8 817.7 1855.4 818.3 1853.73 818.3ZM1858.13 827.2V882H1849.03V827.2H1858.13ZM1882.74 837.3C1884.54 834.166 1887.21 831.566 1890.74 829.5C1894.34 827.366 1898.51 826.3 1903.24 826.3C1908.11 826.3 1912.51 827.466 1916.44 829.8C1920.44 832.133 1923.57 835.433 1925.84 839.7C1928.11 843.9 1929.24 848.8 1929.24 854.4C1929.24 859.933 1928.11 864.866 1925.84 869.2C1923.57 873.533 1920.44 876.9 1916.44 879.3C1912.51 881.7 1908.11 882.9 1903.24 882.9C1898.57 882.9 1894.44 881.866 1890.84 879.8C1887.31 877.666 1884.61 875.033 1882.74 871.9V908H1873.64V827.2H1882.74V837.3ZM1919.94 854.4C1919.94 850.266 1919.11 846.666 1917.44 843.6C1915.77 840.533 1913.51 838.2 1910.64 836.6C1907.84 835 1904.74 834.2 1901.34 834.2C1898.01 834.2 1894.91 835.033 1892.04 836.7C1889.24 838.3 1886.97 840.666 1885.24 843.8C1883.57 846.866 1882.74 850.433 1882.74 854.5C1882.74 858.633 1883.57 862.266 1885.24 865.4C1886.97 868.466 1889.24 870.833 1892.04 872.5C1894.91 874.1 1898.01 874.9 1901.34 874.9C1904.74 874.9 1907.84 874.1 1910.64 872.5C1913.51 870.833 1915.77 868.466 1917.44 865.4C1919.11 862.266 1919.94 858.6 1919.94 854.4ZM1950.62 869.4L1939.42 896.3H1933.32L1940.62 869.4H1950.62ZM2022.6 846.1C2025.14 846.5 2027.44 847.533 2029.5 849.2C2031.64 850.866 2033.3 852.933 2034.5 855.4C2035.77 857.866 2036.4 860.5 2036.4 863.3C2036.4 866.833 2035.5 870.033 2033.7 872.9C2031.9 875.7 2029.27 877.933 2025.8 879.6C2022.4 881.2 2018.37 882 2013.7 882H1987.7V812.3H2012.7C2017.44 812.3 2021.47 813.1 2024.8 814.7C2028.14 816.233 2030.64 818.333 2032.3 821C2033.97 823.666 2034.8 826.666 2034.8 830C2034.8 834.133 2033.67 837.566 2031.4 840.3C2029.2 842.966 2026.27 844.9 2022.6 846.1ZM1996.8 842.4H2012.1C2016.37 842.4 2019.67 841.4 2022 839.4C2024.34 837.4 2025.5 834.633 2025.5 831.1C2025.5 827.566 2024.34 824.8 2022 822.8C2019.67 820.8 2016.3 819.8 2011.9 819.8H1996.8V842.4ZM2012.9 874.5C2017.44 874.5 2020.97 873.433 2023.5 871.3C2026.04 869.166 2027.3 866.2 2027.3 862.4C2027.3 858.533 2025.97 855.5 2023.3 853.3C2020.64 851.033 2017.07 849.9 2012.6 849.9H1996.8V874.5H2012.9ZM2099.03 852.5C2099.03 854.233 2098.93 856.066 2098.73 858H2054.93C2055.27 863.4 2057.1 867.633 2060.43 870.7C2063.83 873.7 2067.93 875.2 2072.73 875.2C2076.67 875.2 2079.93 874.3 2082.53 872.5C2085.2 870.633 2087.07 868.166 2088.13 865.1H2097.93C2096.47 870.366 2093.53 874.666 2089.13 878C2084.73 881.266 2079.27 882.9 2072.73 882.9C2067.53 882.9 2062.87 881.733 2058.73 879.4C2054.67 877.066 2051.47 873.766 2049.13 869.5C2046.8 865.166 2045.63 860.166 2045.63 854.5C2045.63 848.833 2046.77 843.866 2049.03 839.6C2051.3 835.333 2054.47 832.066 2058.53 829.8C2062.67 827.466 2067.4 826.3 2072.73 826.3C2077.93 826.3 2082.53 827.433 2086.53 829.7C2090.53 831.966 2093.6 835.1 2095.73 839.1C2097.93 843.033 2099.03 847.5 2099.03 852.5ZM2089.63 850.6C2089.63 847.133 2088.87 844.166 2087.33 841.7C2085.8 839.166 2083.7 837.266 2081.03 836C2078.43 834.666 2075.53 834 2072.33 834C2067.73 834 2063.8 835.466 2060.53 838.4C2057.33 841.333 2055.5 845.4 2055.03 850.6H2089.63ZM2120.14 836.1C2121.74 832.966 2124.01 830.533 2126.94 828.8C2129.94 827.066 2133.58 826.2 2137.84 826.2V835.6H2135.44C2125.24 835.6 2120.14 841.133 2120.14 852.2V882H2111.04V827.2H2120.14V836.1ZM2198.35 852.5C2198.35 854.233 2198.25 856.066 2198.05 858H2154.25C2154.58 863.4 2156.42 867.633 2159.75 870.7C2163.15 873.7 2167.25 875.2 2172.05 875.2C2175.98 875.2 2179.25 874.3 2181.85 872.5C2184.52 870.633 2186.38 868.166 2187.45 865.1H2197.25C2195.78 870.366 2192.85 874.666 2188.45 878C2184.05 881.266 2178.58 882.9 2172.05 882.9C2166.85 882.9 2162.18 881.733 2158.05 879.4C2153.98 877.066 2150.78 873.766 2148.45 869.5C2146.12 865.166 2144.95 860.166 2144.95 854.5C2144.95 848.833 2146.08 843.866 2148.35 839.6C2150.62 835.333 2153.78 832.066 2157.85 829.8C2161.98 827.466 2166.72 826.3 2172.05 826.3C2177.25 826.3 2181.85 827.433 2185.85 829.7C2189.85 831.966 2192.92 835.1 2195.05 839.1C2197.25 843.033 2198.35 847.5 2198.35 852.5ZM2188.95 850.6C2188.95 847.133 2188.18 844.166 2186.65 841.7C2185.12 839.166 2183.02 837.266 2180.35 836C2177.75 834.666 2174.85 834 2171.65 834C2167.05 834 2163.12 835.466 2159.85 838.4C2156.65 841.333 2154.82 845.4 2154.35 850.6H2188.95ZM2229.76 882.9C2225.56 882.9 2221.79 882.2 2218.46 880.8C2215.13 879.333 2212.49 877.333 2210.56 874.8C2208.63 872.2 2207.56 869.233 2207.36 865.9H2216.76C2217.03 868.633 2218.29 870.866 2220.56 872.6C2222.89 874.333 2225.93 875.2 2229.66 875.2C2233.13 875.2 2235.86 874.433 2237.86 872.9C2239.86 871.366 2240.86 869.433 2240.86 867.1C2240.86 864.7 2239.79 862.933 2237.66 861.8C2235.53 860.6 2232.23 859.433 2227.76 858.3C2223.69 857.233 2220.36 856.166 2217.76 855.1C2215.23 853.966 2213.03 852.333 2211.16 850.2C2209.36 848 2208.46 845.133 2208.46 841.6C2208.46 838.8 2209.29 836.233 2210.96 833.9C2212.63 831.566 2214.99 829.733 2218.06 828.4C2221.13 827 2224.63 826.3 2228.56 826.3C2234.63 826.3 2239.53 827.833 2243.26 830.9C2246.99 833.966 2248.99 838.166 2249.26 843.5H2240.16C2239.96 840.633 2238.79 838.333 2236.66 836.6C2234.59 834.866 2231.79 834 2228.26 834C2224.99 834 2222.39 834.7 2220.46 836.1C2218.53 837.5 2217.56 839.333 2217.56 841.6C2217.56 843.4 2218.13 844.9 2219.26 846.1C2220.46 847.233 2221.93 848.166 2223.66 848.9C2225.46 849.566 2227.93 850.333 2231.06 851.2C2234.99 852.266 2238.19 853.333 2240.66 854.4C2243.13 855.4 2245.23 856.933 2246.96 859C2248.76 861.066 2249.69 863.766 2249.76 867.1C2249.76 870.1 2248.93 872.8 2247.26 875.2C2245.59 877.6 2243.23 879.5 2240.16 880.9C2237.16 882.233 2233.69 882.9 2229.76 882.9ZM2265.51 882.6C2263.77 882.6 2262.31 882 2261.11 880.8C2259.91 879.6 2259.31 878.133 2259.31 876.4C2259.31 874.666 2259.91 873.2 2261.11 872C2262.31 870.8 2263.77 870.2 2265.51 870.2C2267.17 870.2 2268.57 870.8 2269.71 872C2270.91 873.2 2271.51 874.666 2271.51 876.4C2271.51 878.133 2270.91 879.6 2269.71 880.8C2268.57 882 2267.17 882.6 2265.51 882.6Z" fill="#10B981"/>
<defs>
<linearGradient id="paint0_linear_3_47" x1="525.898" y1="313.837" x2="525.898" y2="1297.13" gradientUnits="userSpaceOnUse">
<stop stop-color="#10B981"/>
<stop offset="1" stop-color="#064E3B"/>
</linearGradient>
<linearGradient id="paint1_linear_3_47" x1="770.364" y1="477.302" x2="770.364" y2="957.482" gradientUnits="userSpaceOnUse">
<stop stop-color="#10B981"/>
<stop offset="1" stop-color="#064E3B"/>
</linearGradient>
</defs>
</svg>
