<svg width="1200" height="1787" viewBox="0 0 1200 1787" fill="none" xmlns="http://www.w3.org/2000/svg">
<path d="M932.959 1132C974.102 1132 1007.45 1165.6 1007.45 1207.06C1007.45 1248.51 974.102 1282.12 932.959 1282.12C891.817 1282.12 858.465 1248.51 858.465 1207.06C858.465 1165.6 891.817 1132 932.959 1132Z" fill="#10B981"/>
<path d="M932.959 1132C974.102 1132 1007.45 1165.6 1007.45 1207.06C1007.45 1248.51 974.102 1282.12 932.959 1282.12C891.817 1282.12 858.465 1248.51 858.465 1207.06C858.465 1165.6 891.817 1132 932.959 1132Z" stroke="black"/>
<path d="M314.656 402.03C281.312 322.754 248.889 293.829 163.805 272.55C412.963 -181.394 1017.8 -27.0027 1072 432.131C1030.41 433.383 932.136 434.636 878.5 431.631C826.091 116.146 409.496 110.147 314.656 402.03Z" fill="#10B981"/>
<path d="M39.0304 398.28C-16.8439 381.391 -9.02952 314.926 39.0292 313.837C100.487 313.837 205.347 331.001 225.266 358.873C285.562 402.405 284.043 515.514 340.73 655.362C384.697 805.751 377.977 889.927 448.747 978.123C519.517 1066.32 850.883 1004.62 1018.63 1023.16C1060.89 1041.41 1064.77 1084.95 1018.63 1101.97H763.486L618.222 1297.13C514.773 1186.33 424.224 1040.49 374.252 980C324.28 919.512 138.445 570.993 130.283 546.524L130.029 545.764C121.917 521.461 112.306 492.663 124.696 407.662C108.734 401.336 94.9047 415.168 39.0304 398.28Z" fill="url(#paint0_linear_1_5)"/>
<path d="M476.681 919.951C467.369 891.804 372.288 569.201 341 482.131C577.52 482.131 1152.83 478.378 1164 482.131C1175.17 485.884 1209.65 505.082 1197.42 544.648L1106.16 846.767C1086.18 887.392 1073.4 903.449 1044.7 906.816C898.196 922.453 589.168 954.479 525.102 957.482C502.369 952.358 485.993 948.099 476.681 919.951Z" fill="url(#paint1_linear_1_5)"/>
<path d="M530.689 1132C571.832 1132 605.185 1165.6 605.185 1207.06C605.185 1248.51 571.832 1282.12 530.689 1282.12C489.547 1282.12 456.195 1248.51 456.195 1207.06C456.195 1165.6 489.547 1132 530.689 1132Z" fill="#10B981"/>
<path d="M530.689 1132C571.832 1132 605.185 1165.6 605.185 1207.06C605.185 1248.51 571.832 1282.12 530.689 1282.12C489.547 1282.12 456.195 1248.51 456.195 1207.06C456.195 1165.6 489.547 1132 530.689 1132Z" stroke="black"/>
<path d="M496 631.631L992.763 587.454C1021.91 584.862 1047 607.823 1047 637.082C1047 662.871 1027.32 684.398 1001.63 686.706L572.308 725.275C535.82 728.553 514.236 767.709 530.947 800.311C540.632 819.208 560.892 830.255 582.022 828.163L1047 782.131" stroke="white" stroke-width="30" stroke-linejoin="round"/>
<circle cx="1035.5" cy="780.631" r="27.5" fill="white"/>
<circle cx="1037.5" cy="795.631" r="2.5" fill="#10B981"/>
<path d="M1036.5 762.131C1041.19 762.131 1045 765.757 1045 770.23C1045 774.704 1036.5 790.693 1036.5 789.007C1036.5 787.318 1028 774.704 1028 770.23C1028 765.757 1031.81 762.131 1036.5 762.131Z" fill="#10B981"/>
<path d="M1036.5 762.131C1041.19 762.131 1045 765.757 1045 770.23C1045 774.704 1036.5 790.693 1036.5 789.007C1036.5 787.318 1028 774.704 1028 770.23C1028 765.757 1031.81 762.131 1036.5 762.131Z" stroke="black"/>
<circle cx="1036.5" cy="769.631" r="2.5" fill="white"/>
<path d="M289.42 1385.61V1421.23H241.06V1568.13H196.6V1421.23H148.24V1385.61H289.42ZM334.093 1407.97C326.293 1407.97 319.88 1405.72 314.853 1401.21C310 1396.53 307.573 1390.81 307.573 1384.05C307.573 1377.12 310 1371.4 314.853 1366.89C319.88 1362.21 326.293 1359.87 334.093 1359.87C341.72 1359.87 347.96 1362.21 352.813 1366.89C357.84 1371.4 360.353 1377.12 360.353 1384.05C360.353 1390.81 357.84 1396.53 352.813 1401.21C347.96 1405.72 341.72 1407.97 334.093 1407.97ZM356.193 1423.05V1568.13H311.733V1423.05H356.193ZM469.273 1530.43V1568.13H446.653C430.533 1568.13 417.966 1564.23 408.953 1556.43C399.94 1548.46 395.433 1535.54 395.433 1517.69V1459.97H377.753V1423.05H395.433V1387.69H439.893V1423.05H469.013V1459.97H439.893V1518.21C439.893 1522.54 440.933 1525.66 443.013 1527.57C445.093 1529.48 448.56 1530.43 453.413 1530.43H469.273ZM516.398 1407.97C508.598 1407.97 502.185 1405.72 497.158 1401.21C492.305 1396.53 489.878 1390.81 489.878 1384.05C489.878 1377.12 492.305 1371.4 497.158 1366.89C502.185 1362.21 508.598 1359.87 516.398 1359.87C524.025 1359.87 530.265 1362.21 535.118 1366.89C540.145 1371.4 542.658 1377.12 542.658 1384.05C542.658 1390.81 540.145 1396.53 535.118 1401.21C530.265 1405.72 524.025 1407.97 516.398 1407.97ZM538.498 1423.05V1568.13H494.038V1423.05H538.498ZM615.178 1443.59C619.511 1436.83 625.491 1431.37 633.118 1427.21C640.744 1423.05 649.671 1420.97 659.898 1420.97C671.858 1420.97 682.691 1424 692.398 1430.07C702.104 1436.14 709.731 1444.8 715.278 1456.07C720.998 1467.34 723.858 1480.42 723.858 1495.33C723.858 1510.24 720.998 1523.41 715.278 1534.85C709.731 1546.12 702.104 1554.87 692.398 1561.11C682.691 1567.18 671.858 1570.21 659.898 1570.21C649.844 1570.21 640.918 1568.13 633.118 1563.97C625.491 1559.81 619.511 1554.44 615.178 1547.85V1637.29H570.718V1423.05H615.178V1443.59ZM678.618 1495.33C678.618 1484.24 675.498 1475.57 669.258 1469.33C663.191 1462.92 655.651 1459.71 646.638 1459.71C637.798 1459.71 630.258 1462.92 624.018 1469.33C617.951 1475.74 614.918 1484.5 614.918 1495.59C614.918 1506.68 617.951 1515.44 624.018 1521.85C630.258 1528.26 637.798 1531.47 646.638 1531.47C655.478 1531.47 663.018 1528.26 669.258 1521.85C675.498 1515.26 678.618 1506.42 678.618 1495.33ZM879.738 1407.97C871.938 1407.97 865.524 1405.72 860.498 1401.21C855.644 1396.53 853.218 1390.81 853.218 1384.05C853.218 1377.12 855.644 1371.4 860.498 1366.89C865.524 1362.21 871.938 1359.87 879.738 1359.87C887.364 1359.87 893.604 1362.21 898.458 1366.89C903.484 1371.4 905.998 1377.12 905.998 1384.05C905.998 1390.81 903.484 1396.53 898.458 1401.21C893.604 1405.72 887.364 1407.97 879.738 1407.97ZM901.838 1423.05V1568.13H857.378V1423.05H901.838ZM1022.46 1421.49C1039.44 1421.49 1052.96 1427.04 1063.02 1438.13C1073.24 1449.05 1078.36 1464.13 1078.36 1483.37V1568.13H1034.16V1489.35C1034.16 1479.64 1031.64 1472.1 1026.62 1466.73C1021.59 1461.36 1014.83 1458.67 1006.34 1458.67C997.844 1458.67 991.084 1461.36 986.058 1466.73C981.031 1472.1 978.518 1479.64 978.518 1489.35V1568.13H934.058V1423.05H978.518V1442.29C983.024 1435.88 989.091 1430.85 996.718 1427.21C1004.34 1423.4 1012.92 1421.49 1022.46 1421.49Z" fill="#10B981"/>
<path d="M758 1559.65V1543.45L784.978 1555.98V1581.13L768.219 1573.03V1564.93L758 1559.65Z" fill="#064E3B"/>
<path d="M758 1567.39V1562.11L766.175 1566.1V1572.17L758 1567.39Z" fill="#064E3B"/>
<path d="M786.742 1581.13C786.699 1573.5 786.639 1557.79 786.742 1555.98L814 1542.04V1567.75L786.742 1581.13Z" fill="#064E3B"/>
<path d="M758 1539.57L785.796 1553.31L814 1538.51L785.796 1525.13L758 1539.42M758 1543.45V1559.65L768.219 1564.93V1573.03L784.978 1581.13V1555.98L758 1543.45ZM758 1562.11V1567.39L766.175 1572.17V1566.1L758 1562.11ZM786.742 1555.98C786.639 1557.79 786.699 1573.5 786.742 1581.13L814 1567.75V1542.04L786.742 1555.98Z" stroke="#064E3B"/>
<path d="M209.3 1696.83C209.3 1702.63 207.3 1707.46 203.3 1711.33C199.367 1715.13 193.333 1717.03 185.2 1717.03H171.8V1746.13H162.7V1676.43H185.2C193.067 1676.43 199.033 1678.33 203.1 1682.13C207.233 1685.93 209.3 1690.83 209.3 1696.83ZM185.2 1709.53C190.267 1709.53 194 1708.43 196.4 1706.23C198.8 1704.03 200 1700.9 200 1696.83C200 1688.23 195.067 1683.93 185.2 1683.93H171.8V1709.53H185.2ZM270.61 1716.63C270.61 1718.36 270.51 1720.2 270.31 1722.13H226.51C226.843 1727.53 228.677 1731.76 232.01 1734.83C235.41 1737.83 239.51 1739.33 244.31 1739.33C248.243 1739.33 251.51 1738.43 254.11 1736.63C256.777 1734.76 258.643 1732.3 259.71 1729.23H269.51C268.043 1734.5 265.11 1738.8 260.71 1742.13C256.31 1745.4 250.843 1747.03 244.31 1747.03C239.11 1747.03 234.443 1745.86 230.31 1743.53C226.243 1741.2 223.043 1737.9 220.71 1733.63C218.377 1729.3 217.21 1724.3 217.21 1718.63C217.21 1712.96 218.343 1708 220.61 1703.73C222.877 1699.46 226.043 1696.2 230.11 1693.93C234.243 1691.6 238.977 1690.43 244.31 1690.43C249.51 1690.43 254.11 1691.56 258.11 1693.83C262.11 1696.1 265.177 1699.23 267.31 1703.23C269.51 1707.16 270.61 1711.63 270.61 1716.63ZM261.21 1714.73C261.21 1711.26 260.443 1708.3 258.91 1705.83C257.377 1703.3 255.277 1701.4 252.61 1700.13C250.01 1698.8 247.11 1698.13 243.91 1698.13C239.31 1698.13 235.377 1699.6 232.11 1702.53C228.91 1705.46 227.077 1709.53 226.61 1714.73H261.21ZM302.022 1747.03C297.822 1747.03 294.055 1746.33 290.722 1744.93C287.389 1743.46 284.755 1741.46 282.822 1738.93C280.889 1736.33 279.822 1733.36 279.622 1730.03H289.022C289.289 1732.76 290.555 1735 292.822 1736.73C295.155 1738.46 298.189 1739.33 301.922 1739.33C305.389 1739.33 308.122 1738.56 310.122 1737.03C312.122 1735.5 313.122 1733.56 313.122 1731.23C313.122 1728.83 312.055 1727.06 309.922 1725.93C307.789 1724.73 304.489 1723.56 300.022 1722.43C295.955 1721.36 292.622 1720.3 290.022 1719.23C287.489 1718.1 285.289 1716.46 283.422 1714.33C281.622 1712.13 280.722 1709.26 280.722 1705.73C280.722 1702.93 281.555 1700.36 283.222 1698.03C284.889 1695.7 287.255 1693.86 290.322 1692.53C293.389 1691.13 296.889 1690.43 300.822 1690.43C306.889 1690.43 311.789 1691.96 315.522 1695.03C319.255 1698.1 321.255 1702.3 321.522 1707.63H312.422C312.222 1704.76 311.055 1702.46 308.922 1700.73C306.855 1699 304.055 1698.13 300.522 1698.13C297.255 1698.13 294.655 1698.83 292.722 1700.23C290.789 1701.63 289.822 1703.46 289.822 1705.73C289.822 1707.53 290.389 1709.03 291.522 1710.23C292.722 1711.36 294.189 1712.3 295.922 1713.03C297.722 1713.7 300.189 1714.46 303.322 1715.33C307.255 1716.4 310.455 1717.46 312.922 1718.53C315.389 1719.53 317.489 1721.06 319.222 1723.13C321.022 1725.2 321.955 1727.9 322.022 1731.23C322.022 1734.23 321.189 1736.93 319.522 1739.33C317.855 1741.73 315.489 1743.63 312.422 1745.03C309.422 1746.36 305.955 1747.03 302.022 1747.03ZM331.468 1718.53C331.468 1712.93 332.601 1708.03 334.868 1703.83C337.135 1699.56 340.235 1696.26 344.168 1693.93C348.168 1691.6 352.601 1690.43 357.468 1690.43C362.268 1690.43 366.435 1691.46 369.968 1693.53C373.501 1695.6 376.135 1698.2 377.868 1701.33V1691.33H387.068V1746.13H377.868V1735.93C376.068 1739.13 373.368 1741.8 369.768 1743.93C366.235 1746 362.101 1747.03 357.368 1747.03C352.501 1747.03 348.101 1745.83 344.168 1743.43C340.235 1741.03 337.135 1737.66 334.868 1733.33C332.601 1729 331.468 1724.06 331.468 1718.53ZM377.868 1718.63C377.868 1714.5 377.035 1710.9 375.368 1707.83C373.701 1704.76 371.435 1702.43 368.568 1700.83C365.768 1699.16 362.668 1698.33 359.268 1698.33C355.868 1698.33 352.768 1699.13 349.968 1700.73C347.168 1702.33 344.935 1704.66 343.268 1707.73C341.601 1710.8 340.768 1714.4 340.768 1718.53C340.768 1722.73 341.601 1726.4 343.268 1729.53C344.935 1732.6 347.168 1734.96 349.968 1736.63C352.768 1738.23 355.868 1739.03 359.268 1739.03C362.668 1739.03 365.768 1738.23 368.568 1736.63C371.435 1734.96 373.701 1732.6 375.368 1729.53C377.035 1726.4 377.868 1722.76 377.868 1718.63ZM429.146 1690.33C435.813 1690.33 441.213 1692.36 445.346 1696.43C449.479 1700.43 451.546 1706.23 451.546 1713.83V1746.13H442.546V1715.13C442.546 1709.66 441.179 1705.5 438.446 1702.63C435.713 1699.7 431.979 1698.23 427.246 1698.23C422.446 1698.23 418.613 1699.73 415.746 1702.73C412.946 1705.73 411.546 1710.1 411.546 1715.83V1746.13H402.446V1691.33H411.546V1699.13C413.346 1696.33 415.779 1694.16 418.846 1692.63C421.979 1691.1 425.413 1690.33 429.146 1690.33ZM475.811 1733.53L464.611 1760.43H458.511L465.811 1733.53H475.811ZM555.795 1676.43V1683.83H536.795V1746.13H527.695V1683.83H508.595V1676.43H555.795ZM571.697 1682.43C569.964 1682.43 568.497 1681.83 567.297 1680.63C566.097 1679.43 565.497 1677.96 565.497 1676.23C565.497 1674.5 566.097 1673.03 567.297 1671.83C568.497 1670.63 569.964 1670.03 571.697 1670.03C573.364 1670.03 574.764 1670.63 575.897 1671.83C577.097 1673.03 577.697 1674.5 577.697 1676.23C577.697 1677.96 577.097 1679.43 575.897 1680.63C574.764 1681.83 573.364 1682.43 571.697 1682.43ZM576.097 1691.33V1746.13H566.997V1691.33H576.097ZM602.706 1698.83V1731.13C602.706 1733.8 603.273 1735.7 604.406 1736.83C605.54 1737.9 607.506 1738.43 610.306 1738.43H617.006V1746.13H608.806C603.74 1746.13 599.94 1744.96 597.406 1742.63C594.873 1740.3 593.606 1736.46 593.606 1731.13V1698.83H586.506V1691.33H593.606V1677.53H602.706V1691.33H617.006V1698.83H602.706ZM632.732 1682.43C630.999 1682.43 629.532 1681.83 628.332 1680.63C627.132 1679.43 626.532 1677.96 626.532 1676.23C626.532 1674.5 627.132 1673.03 628.332 1671.83C629.532 1670.63 630.999 1670.03 632.732 1670.03C634.399 1670.03 635.799 1670.63 636.932 1671.83C638.132 1673.03 638.732 1674.5 638.732 1676.23C638.732 1677.96 638.132 1679.43 636.932 1680.63C635.799 1681.83 634.399 1682.43 632.732 1682.43ZM637.132 1691.33V1746.13H628.032V1691.33H637.132ZM661.741 1701.43C663.541 1698.3 666.208 1695.7 669.741 1693.63C673.341 1691.5 677.508 1690.43 682.241 1690.43C687.108 1690.43 691.508 1691.6 695.441 1693.93C699.441 1696.26 702.575 1699.56 704.841 1703.83C707.108 1708.03 708.241 1712.93 708.241 1718.53C708.241 1724.06 707.108 1729 704.841 1733.33C702.575 1737.66 699.441 1741.03 695.441 1743.43C691.508 1745.83 687.108 1747.03 682.241 1747.03C677.575 1747.03 673.441 1746 669.841 1743.93C666.308 1741.8 663.608 1739.16 661.741 1736.03V1772.13H652.641V1691.33H661.741V1701.43ZM698.941 1718.53C698.941 1714.4 698.108 1710.8 696.441 1707.73C694.775 1704.66 692.508 1702.33 689.641 1700.73C686.841 1699.13 683.741 1698.33 680.341 1698.33C677.008 1698.33 673.908 1699.16 671.041 1700.83C668.241 1702.43 665.975 1704.8 664.241 1707.93C662.575 1711 661.741 1714.56 661.741 1718.63C661.741 1722.76 662.575 1726.4 664.241 1729.53C665.975 1732.6 668.241 1734.96 671.041 1736.63C673.908 1738.23 677.008 1739.03 680.341 1739.03C683.741 1739.03 686.841 1738.23 689.641 1736.63C692.508 1734.96 694.775 1732.6 696.441 1729.53C698.108 1726.4 698.941 1722.73 698.941 1718.53ZM729.62 1733.53L718.42 1760.43H712.32L719.62 1733.53H729.62ZM801.604 1710.23C804.137 1710.63 806.437 1711.66 808.504 1713.33C810.637 1715 812.304 1717.06 813.504 1719.53C814.771 1722 815.404 1724.63 815.404 1727.43C815.404 1730.96 814.504 1734.16 812.704 1737.03C810.904 1739.83 808.271 1742.06 804.804 1743.73C801.404 1745.33 797.371 1746.13 792.704 1746.13H766.704V1676.43H791.704C796.437 1676.43 800.471 1677.23 803.804 1678.83C807.137 1680.36 809.637 1682.46 811.304 1685.13C812.971 1687.8 813.804 1690.8 813.804 1694.13C813.804 1698.26 812.671 1701.7 810.404 1704.43C808.204 1707.1 805.271 1709.03 801.604 1710.23ZM775.804 1706.53H791.104C795.371 1706.53 798.671 1705.53 801.004 1703.53C803.337 1701.53 804.504 1698.76 804.504 1695.23C804.504 1691.7 803.337 1688.93 801.004 1686.93C798.671 1684.93 795.304 1683.93 790.904 1683.93H775.804V1706.53ZM791.904 1738.63C796.437 1738.63 799.971 1737.56 802.504 1735.43C805.037 1733.3 806.304 1730.33 806.304 1726.53C806.304 1722.66 804.971 1719.63 802.304 1717.43C799.637 1715.16 796.071 1714.03 791.604 1714.03H775.804V1738.63H791.904ZM878.032 1716.63C878.032 1718.36 877.932 1720.2 877.732 1722.13H833.932C834.265 1727.53 836.099 1731.76 839.432 1734.83C842.832 1737.83 846.932 1739.33 851.732 1739.33C855.665 1739.33 858.932 1738.43 861.532 1736.63C864.199 1734.76 866.065 1732.3 867.132 1729.23H876.932C875.465 1734.5 872.532 1738.8 868.132 1742.13C863.732 1745.4 858.265 1747.03 851.732 1747.03C846.532 1747.03 841.865 1745.86 837.732 1743.53C833.665 1741.2 830.465 1737.9 828.132 1733.63C825.799 1729.3 824.632 1724.3 824.632 1718.63C824.632 1712.96 825.765 1708 828.032 1703.73C830.299 1699.46 833.465 1696.2 837.532 1693.93C841.665 1691.6 846.399 1690.43 851.732 1690.43C856.932 1690.43 861.532 1691.56 865.532 1693.83C869.532 1696.1 872.599 1699.23 874.732 1703.23C876.932 1707.16 878.032 1711.63 878.032 1716.63ZM868.632 1714.73C868.632 1711.26 867.865 1708.3 866.332 1705.83C864.799 1703.3 862.699 1701.4 860.032 1700.13C857.432 1698.8 854.532 1698.13 851.332 1698.13C846.732 1698.13 842.799 1699.6 839.532 1702.53C836.332 1705.46 834.499 1709.53 834.032 1714.73H868.632ZM899.144 1700.23C900.744 1697.1 903.01 1694.66 905.944 1692.93C908.944 1691.2 912.577 1690.33 916.844 1690.33V1699.73H914.444C904.244 1699.73 899.144 1705.26 899.144 1716.33V1746.13H890.044V1691.33H899.144V1700.23ZM977.348 1716.63C977.348 1718.36 977.248 1720.2 977.048 1722.13H933.248C933.582 1727.53 935.415 1731.76 938.748 1734.83C942.148 1737.83 946.248 1739.33 951.048 1739.33C954.982 1739.33 958.248 1738.43 960.848 1736.63C963.515 1734.76 965.382 1732.3 966.448 1729.23H976.248C974.782 1734.5 971.848 1738.8 967.448 1742.13C963.048 1745.4 957.582 1747.03 951.048 1747.03C945.848 1747.03 941.182 1745.86 937.048 1743.53C932.982 1741.2 929.782 1737.9 927.448 1733.63C925.115 1729.3 923.948 1724.3 923.948 1718.63C923.948 1712.96 925.082 1708 927.348 1703.73C929.615 1699.46 932.782 1696.2 936.848 1693.93C940.982 1691.6 945.715 1690.43 951.048 1690.43C956.248 1690.43 960.848 1691.56 964.848 1693.83C968.848 1696.1 971.915 1699.23 974.048 1703.23C976.248 1707.16 977.348 1711.63 977.348 1716.63ZM967.948 1714.73C967.948 1711.26 967.182 1708.3 965.648 1705.83C964.115 1703.3 962.015 1701.4 959.348 1700.13C956.748 1698.8 953.848 1698.13 950.648 1698.13C946.048 1698.13 942.115 1699.6 938.848 1702.53C935.648 1705.46 933.815 1709.53 933.348 1714.73H967.948ZM1008.76 1747.03C1004.56 1747.03 1000.79 1746.33 997.46 1744.93C994.127 1743.46 991.493 1741.46 989.56 1738.93C987.627 1736.33 986.56 1733.36 986.36 1730.03H995.76C996.027 1732.76 997.293 1735 999.56 1736.73C1001.89 1738.46 1004.93 1739.33 1008.66 1739.33C1012.13 1739.33 1014.86 1738.56 1016.86 1737.03C1018.86 1735.5 1019.86 1733.56 1019.86 1731.23C1019.86 1728.83 1018.79 1727.06 1016.66 1725.93C1014.53 1724.73 1011.23 1723.56 1006.76 1722.43C1002.69 1721.36 999.36 1720.3 996.76 1719.23C994.227 1718.1 992.027 1716.46 990.16 1714.33C988.36 1712.13 987.46 1709.26 987.46 1705.73C987.46 1702.93 988.293 1700.36 989.96 1698.03C991.627 1695.7 993.993 1693.86 997.06 1692.53C1000.13 1691.13 1003.63 1690.43 1007.56 1690.43C1013.63 1690.43 1018.53 1691.96 1022.26 1695.03C1025.99 1698.1 1027.99 1702.3 1028.26 1707.63H1019.16C1018.96 1704.76 1017.79 1702.46 1015.66 1700.73C1013.59 1699 1010.79 1698.13 1007.26 1698.13C1003.99 1698.13 1001.39 1698.83 999.46 1700.23C997.527 1701.63 996.56 1703.46 996.56 1705.73C996.56 1707.53 997.127 1709.03 998.26 1710.23C999.46 1711.36 1000.93 1712.3 1002.66 1713.03C1004.46 1713.7 1006.93 1714.46 1010.06 1715.33C1013.99 1716.4 1017.19 1717.46 1019.66 1718.53C1022.13 1719.53 1024.23 1721.06 1025.96 1723.13C1027.76 1725.2 1028.69 1727.9 1028.76 1731.23C1028.76 1734.23 1027.93 1736.93 1026.26 1739.33C1024.59 1741.73 1022.23 1743.63 1019.16 1745.03C1016.16 1746.36 1012.69 1747.03 1008.76 1747.03ZM1044.51 1746.73C1042.77 1746.73 1041.31 1746.13 1040.11 1744.93C1038.91 1743.73 1038.31 1742.26 1038.31 1740.53C1038.31 1738.8 1038.91 1737.33 1040.11 1736.13C1041.31 1734.93 1042.77 1734.33 1044.51 1734.33C1046.17 1734.33 1047.57 1734.93 1048.71 1736.13C1049.91 1737.33 1050.51 1738.8 1050.51 1740.53C1050.51 1742.26 1049.91 1743.73 1048.71 1744.93C1047.57 1746.13 1046.17 1746.73 1044.51 1746.73Z" fill="#10B981"/>
<defs>
<linearGradient id="paint0_linear_1_5" x1="525.898" y1="313.837" x2="525.898" y2="1297.13" gradientUnits="userSpaceOnUse">
<stop stop-color="#10B981"/>
<stop offset="1" stop-color="#064E3B"/>
</linearGradient>
<linearGradient id="paint1_linear_1_5" x1="770.364" y1="477.302" x2="770.364" y2="957.482" gradientUnits="userSpaceOnUse">
<stop stop-color="#10B981"/>
<stop offset="1" stop-color="#064E3B"/>
</linearGradient>
</defs>
</svg>
